inDegrees=no
DataType=double
version=3
OpenSimVersion=4.4-2022-10-11-798caa840
endheader
time	elv_angle	shoulder_elv	shoulder_rot	elbow_flexion	pro_sup	deviation	flexion
2.4020851434	0.3316125572	0.8277204037	0.8759149313	1.7750586271	0.0000000000	0.0000000000	0.0000000000
2.4062554301	0.3316125572	0.8277204037	0.8759149313	1.7750586271	0.0000000000	0.0000000000	0.0000000000
2.4104257168	0.3316125572	0.8277204037	0.8759149313	1.7750586271	0.0000000000	0.0000000000	0.0000000000
2.4145960035	0.3316125572	0.8277204037	0.8759149313	1.7750586271	0.0000000000	0.0000000000	0.0000000000
2.4187662902	0.3316125572	0.8277204037	0.8759149313	1.7750586271	0.0000000000	0.0000000000	0.0000000000
2.4229365769	0.3316125572	0.8277204037	0.8759149313	1.7750586271	0.0000000000	0.0000000000	0.0000000000
2.4271068636	0.3316125572	0.8277204037	0.8759149313	1.7750586271	0.0000000000	0.0000000000	0.0000000000
2.4312771503	0.3316125572	0.8277204037	0.8759149313	1.7750586271	0.0000000000	0.0000000000	0.0000000000
2.4354474370	0.3316125572	0.8277204037	0.8759149313	1.7750586271	0.0000000000	0.0000000000	0.0000000000
2.4396177237	0.3316125572	0.8277204037	0.8759149313	1.7750586271	0.0000000000	0.0000000000	0.0000000000
2.4437880104	0.3316125572	0.8277204037	0.8759149313	1.7750586271	0.0000000000	0.0000000000	0.0000000000
2.4479582971	0.3316125572	0.8277204037	0.8759149313	1.7750586271	0.0000000000	0.0000000000	0.0000000000
2.4521285838	0.3316125572	0.8277204037	0.8759149313	1.7750586271	0.0000000000	0.0000000000	0.0000000000
2.4562988705	0.3316125572	0.8277204037	0.8759149313	1.7750586271	0.0000000000	0.0000000000	0.0000000000
2.4604691573	0.3316125572	0.8277204037	0.8759149313	1.7750586271	0.0000000000	0.0000000000	0.0000000000
2.4646394440	0.3316125572	0.8277204037	0.8759149313	1.7750586271	0.0000000000	0.0000000000	0.0000000000
2.4688097307	0.3316125572	0.8277204037	0.8759149313	1.7750586271	0.0000000000	0.0000000000	0.0000000000
2.4729800174	0.3316125572	0.8277204037	0.8759149313	1.7750586271	0.0000000000	0.0000000000	0.0000000000
2.4771503041	0.3316125572	0.8277204037	0.8759149313	1.7750586271	0.0000000000	0.0000000000	0.0000000000
2.4813205908	0.3316125572	0.8277204037	0.8759149313	1.7750586271	0.0000000000	0.0000000000	0.0000000000
2.4854908775	0.3316125572	0.8277204037	0.8759149313	1.7750586271	0.0000000000	0.0000000000	0.0000000000
2.4896611642	0.3316125572	0.8277204037	0.8759149313	1.7750586271	0.0000000000	0.0000000000	0.0000000000
2.4938314509	0.3316125572	0.8277204037	0.8759149313	1.7750586271	0.0000000000	0.0000000000	0.0000000000
2.4980017376	0.3316125572	0.8277204037	0.8759149313	1.7750586271	0.0000000000	0.0000000000	0.0000000000
2.5021720243	0.3316125572	0.8277204037	0.8759149313	1.7750586271	0.0000000000	0.0000000000	0.0000000000
2.5063423110	0.3316125572	0.8277204037	0.8759149313	1.7750586271	0.0000000000	0.0000000000	0.0000000000
2.5105125977	0.3316125572	0.8277204037	0.8759149313	1.7750586271	0.0000000000	0.0000000000	0.0000000000
2.5146828844	0.3316125572	0.8277204037	0.8759149313	1.7750586271	0.0000000000	0.0000000000	0.0000000000
2.5188531712	0.3316125572	0.8277204037	0.8759149313	1.7750586271	0.0000000000	0.0000000000	0.0000000000
2.5230234579	0.3316125572	0.8277204037	0.8759149313	1.7750586271	0.0000000000	0.0000000000	0.0000000000
2.5271937446	0.3316125572	0.8277204037	0.8759149313	1.7750586271	0.0000000000	0.0000000000	0.0000000000
2.5313640313	0.3316125572	0.8277204037	0.8759149313	1.7750586271	0.0000000000	0.0000000000	0.0000000000
2.5355343180	0.3316125572	0.8277204037	0.8759149313	1.7750586271	0.0000000000	0.0000000000	0.0000000000
2.5397046047	0.3316125572	0.8277204037	0.8759149313	1.7750586271	0.0000000000	0.0000000000	0.0000000000
2.5438748914	0.3316125572	0.8277204037	0.8759149313	1.7750586271	0.0000000000	0.0000000000	0.0000000000
2.5480451781	0.3316125572	0.8277204037	0.8759149313	1.7750586271	0.0000000000	0.0000000000	0.0000000000
2.5522154648	0.3316125572	0.8277204037	0.8759149313	1.7750586271	0.0000000000	0.0000000000	0.0000000000
2.5563857515	0.3316125572	0.8277204037	0.8759149313	1.7750586271	0.0000000000	0.0000000000	0.0000000000
2.5605560382	0.3316125572	0.8277204037	0.8759149313	1.7750586271	0.0000000000	0.0000000000	0.0000000000
2.5647263249	0.3316125572	0.8277204037	0.8759149313	1.7750586271	0.0000000000	0.0000000000	0.0000000000
2.5688966116	0.3316125572	0.8277204037	0.8759149313	1.7750586271	0.0000000000	0.0000000000	0.0000000000
2.5730668983	0.3316125572	0.8277204037	0.8759149313	1.7750586271	0.0000000000	0.0000000000	0.0000000000
2.5772371851	0.3316125572	0.8277204037	0.8759149313	1.7750586271	0.0000000000	0.0000000000	0.0000000000
2.5814074718	0.3316125572	0.8277204037	0.8759149313	1.7750586271	0.0000000000	0.0000000000	0.0000000000
2.5855777585	0.3316125572	0.8277204037	0.8759149313	1.7750586271	0.0000000000	0.0000000000	0.0000000000
2.5897480452	0.3316125572	0.8277204037	0.8759149313	1.7750586271	0.0000000000	0.0000000000	0.0000000000
2.5939183319	0.3316125572	0.8277204037	0.8759149313	1.7750586271	0.0000000000	0.0000000000	0.0000000000
2.5980886186	0.3316125572	0.8277204037	0.8759149313	1.7750586271	0.0000000000	0.0000000000	0.0000000000
2.6022589053	0.3316125572	0.8277204037	0.8759149313	1.7750586271	0.0000000000	0.0000000000	0.0000000000
2.6064291920	0.3316125572	0.8277204037	0.8759149313	1.7750586271	0.0000000000	0.0000000000	0.0000000000
2.6105994787	0.3316125572	0.8277204037	0.8759149313	1.7750586271	0.0000000000	0.0000000000	0.0000000000
2.6147697654	0.3316125572	0.8277204037	0.8759149313	1.7750586271	0.0000000000	0.0000000000	0.0000000000
2.6189400521	0.3316125572	0.8277204037	0.8759149313	1.7750586271	0.0000000000	0.0000000000	0.0000000000
2.6231103388	0.3316125572	0.8277204037	0.8759149313	1.7750586271	0.0000000000	0.0000000000	0.0000000000
2.6272806255	0.3316125572	0.8277204037	0.8759149313	1.7750586271	0.0000000000	0.0000000000	0.0000000000
2.6314509123	0.3316125572	0.8277204037	0.8759149313	1.7750586271	0.0000000000	0.0000000000	0.0000000000
2.6356211990	0.3316125572	0.8277204037	0.8759149313	1.7750586271	0.0000000000	0.0000000000	0.0000000000
2.6397914857	0.3316125572	0.8277204037	0.8759149313	1.7750586271	0.0000000000	0.0000000000	0.0000000000
2.6439617724	0.3316125572	0.8277204037	0.8759149313	1.7750586271	0.0000000000	0.0000000000	0.0000000000
2.6481320591	0.3316125572	0.8277204037	0.8759149313	1.7750586271	0.0000000000	0.0000000000	0.0000000000
2.6523023458	0.3316125572	0.8277204037	0.8759149313	1.7750586271	0.0000000000	0.0000000000	0.0000000000
2.6564726325	0.3316129744	0.8277211189	0.8759142756	1.7750571966	0.0000000000	0.0000000000	0.0000000000
2.6606429192	0.3316157162	0.8277263641	0.8759093285	1.7750476599	0.0000000000	0.0000000000	0.0000000000
2.6648132059	0.3316231966	0.8277403712	0.8758962750	1.7750221491	0.0000000000	0.0000000000	0.0000000000
2.6689834926	0.3316375315	0.8277671337	0.8758712411	1.7749733925	0.0000000000	0.0000000000	0.0000000000
2.6731537793	0.3316606879	0.8278104663	0.8758306503	1.7748943567	0.0000000000	0.0000000000	0.0000000000
2.6773240660	0.3316947818	0.8278741241	0.8757711053	1.7747782469	0.0000000000	0.0000000000	0.0000000000
2.6814943527	0.3317414820	0.8279612660	0.8756895661	1.7746189833	0.0000000000	0.0000000000	0.0000000000
2.6856646394	0.3318025768	0.8280751705	0.8755829334	1.7744107246	0.0000000000	0.0000000000	0.0000000000
2.6898349262	0.3318796754	0.8282188177	0.8754484653	1.7741478682	0.0000000000	0.0000000000	0.0000000000
2.6940052129	0.3319743574	0.8283948302	0.8752837181	1.7738252878	0.0000000000	0.0000000000	0.0000000000
2.6981754996	0.3320878148	0.8286057711	0.8750861883	1.7734382153	0.0000000000	0.0000000000	0.0000000000
2.7023457863	0.3322216570	0.8288538456	0.8748537302	1.7729820013	0.0000000000	0.0000000000	0.0000000000
2.7065160730	0.3323769271	0.8291412592	0.8745844960	1.7724525928	0.0000000000	0.0000000000	0.0000000000
2.7106863597	0.3325547874	0.8294698000	0.8742765784	1.7718459368	0.0000000000	0.0000000000	0.0000000000
2.7148566464	0.3327563405	0.8298411369	0.8739284873	1.7711584568	0.0000000000	0.0000000000	0.0000000000
